<svg width="64" height="64" viewBox="0 0 64 64" fill="none" xmlns="http://www.w3.org/2000/svg">
<g clip-path="url(#clip0_102_2)">
<path d="M32 64C49.6731 64 64 49.6731 64 32C64 14.3269 49.6731 0 32 0C14.3269 0 0 14.3269 0 32C0 49.6731 14.3269 64 32 64Z" fill="#89C4F4"/>
<path d="M32 64C49.673 64 64 49.673 64 32C64 14.327 49.673 0 32 0V64Z" fill="#6BB9F0"/>
<g clip-path="url(#clip1_102_2)">
<path d="M40.6379 20.6639C40.6379 19.9019 40.0201 19.2842 39.2582 19.2842H15.3798C14.6178 19.2842 14 19.9019 14 20.6639C14 21.4259 14.6178 22.0437 15.3798 22.0437H39.2582C40.0201 22.0437 40.6379 21.4259 40.6379 20.6639Z" fill="white"/>
<path d="M52.6202 24.9522H24.7864C24.0244 24.9522 23.4066 25.57 23.4066 26.332C23.4066 27.094 24.0244 27.7117 24.7864 27.7117H52.6202C53.3822 27.7117 54 27.094 54 26.332C54 25.57 53.3822 24.9522 52.6202 24.9522Z" fill="white"/>
<path d="M46.1078 33.3796C46.8698 33.3796 47.4876 32.7618 47.4876 31.9998C47.4876 31.2378 46.8698 30.6201 46.1078 30.6201H18.1293C17.3673 30.6201 16.7496 31.2378 16.7496 31.9998C16.7496 32.7618 17.3673 33.3796 18.1293 33.3796H46.1078Z" fill="white"/>
<path d="M50.6906 36.2881H22.7603C21.9983 36.2881 21.3806 36.9058 21.3806 37.6678C21.3806 38.4298 21.9983 39.0476 22.7603 39.0476H50.6906C51.4526 39.0476 52.0704 38.4298 52.0704 37.6678C52.0704 36.9058 51.4526 36.2881 50.6906 36.2881Z" fill="white"/>
<path d="M37.1355 41.9563H18.6117C17.8497 41.9563 17.2319 42.5741 17.2319 43.3361C17.2319 44.098 17.8497 44.7158 18.6117 44.7158H37.1354C37.8973 44.7158 38.5151 44.098 38.5151 43.3361C38.5153 42.5741 37.8975 41.9563 37.1355 41.9563Z" fill="white"/>
</g>
</g>
<defs>
<clipPath id="clip0_102_2">
<rect width="64" height="64" fill="white"/>
</clipPath>
<clipPath id="clip1_102_2">
<rect width="40" height="40" fill="white" transform="translate(14 12)"/>
</clipPath>
</defs>
</svg>
